<?xml version="1.0" standalone="no"?>
<svg xmlns:xlink="http://www.w3.org/1999/xlink" id="wave" style="transform:rotate(180deg); transition: 0.3s" viewBox="0 0 1440 240" version="1.1" xmlns="http://www.w3.org/2000/svg"><defs><linearGradient id="sw-gradient-0" x1="0" x2="0" y1="1" y2="0"><stop stop-color="rgba(92, 43, 226, 1)" offset="0%"/><stop stop-color="rgba(163, 71, 226, 0.29)" offset="100%"/></linearGradient></defs><path style="transform:translate(0, 0px); opacity:1" fill="url(#sw-gradient-0)" d="M0,72L15,80C30,88,60,104,90,116C120,128,150,136,180,132C210,128,240,112,270,100C300,88,330,80,360,84C390,88,420,104,450,104C480,104,510,88,540,72C570,56,600,40,630,56C660,72,690,120,720,116C750,112,780,56,810,36C840,16,870,32,900,32C930,32,960,16,990,20C1020,24,1050,48,1080,52C1110,56,1140,40,1170,56C1200,72,1230,120,1260,136C1290,152,1320,136,1350,136C1380,136,1410,152,1440,160C1470,168,1500,168,1530,172C1560,176,1590,184,1620,184C1650,184,1680,176,1710,144C1740,112,1770,56,1800,32C1830,8,1860,16,1890,32C1920,48,1950,72,1980,96C2010,120,2040,144,2070,148C2100,152,2130,136,2145,128L2160,120L2160,240L2145,240C2130,240,2100,240,2070,240C2040,240,2010,240,1980,240C1950,240,1920,240,1890,240C1860,240,1830,240,1800,240C1770,240,1740,240,1710,240C1680,240,1650,240,1620,240C1590,240,1560,240,1530,240C1500,240,1470,240,1440,240C1410,240,1380,240,1350,240C1320,240,1290,240,1260,240C1230,240,1200,240,1170,240C1140,240,1110,240,1080,240C1050,240,1020,240,990,240C960,240,930,240,900,240C870,240,840,240,810,240C780,240,750,240,720,240C690,240,660,240,630,240C600,240,570,240,540,240C510,240,480,240,450,240C420,240,390,240,360,240C330,240,300,240,270,240C240,240,210,240,180,240C150,240,120,240,90,240C60,240,30,240,15,240L0,240Z"/><defs><linearGradient id="sw-gradient-1" x1="0" x2="0" y1="1" y2="0"><stop stop-color="rgba(10, 250, 189, 0.67)" offset="0%"/><stop stop-color="rgba(144, 212, 180, 1)" offset="100%"/></linearGradient></defs><path style="transform:translate(0, 50px); opacity:0.9" fill="url(#sw-gradient-1)" d="M0,48L15,76C30,104,60,160,90,164C120,168,150,120,180,96C210,72,240,72,270,84C300,96,330,120,360,136C390,152,420,160,450,164C480,168,510,168,540,148C570,128,600,88,630,84C660,80,690,112,720,120C750,128,780,112,810,120C840,128,870,160,900,164C930,168,960,144,990,128C1020,112,1050,104,1080,92C1110,80,1140,64,1170,80C1200,96,1230,144,1260,144C1290,144,1320,96,1350,64C1380,32,1410,16,1440,20C1470,24,1500,48,1530,76C1560,104,1590,136,1620,148C1650,160,1680,152,1710,124C1740,96,1770,48,1800,44C1830,40,1860,80,1890,96C1920,112,1950,104,1980,96C2010,88,2040,80,2070,100C2100,120,2130,168,2145,192L2160,216L2160,240L2145,240C2130,240,2100,240,2070,240C2040,240,2010,240,1980,240C1950,240,1920,240,1890,240C1860,240,1830,240,1800,240C1770,240,1740,240,1710,240C1680,240,1650,240,1620,240C1590,240,1560,240,1530,240C1500,240,1470,240,1440,240C1410,240,1380,240,1350,240C1320,240,1290,240,1260,240C1230,240,1200,240,1170,240C1140,240,1110,240,1080,240C1050,240,1020,240,990,240C960,240,930,240,900,240C870,240,840,240,810,240C780,240,750,240,720,240C690,240,660,240,630,240C600,240,570,240,540,240C510,240,480,240,450,240C420,240,390,240,360,240C330,240,300,240,270,240C240,240,210,240,180,240C150,240,120,240,90,240C60,240,30,240,15,240L0,240Z"/></svg>