<?xml version="1.0" standalone="no"?>
<svg xmlns:xlink="http://www.w3.org/1999/xlink" id="wave" style="transform:rotate(180deg); transition: 0.3s" viewBox="0 0 1440 490" version="1.1" xmlns="http://www.w3.org/2000/svg">
<defs>
<linearGradient id="sw-gradient-0" x1="0" x2="0" y1="1" y2="0">
<stop stop-color="rgba(250.276, 10.037, 70.037, 0.67)" offset="0%"/>
<stop stop-color="rgba(250.10, 20.391, 30.391, 0)" offset="100%"/>
</linearGradient>
</defs>
<path style="transform:translate(0, 0px); opacity:1" fill="url(#sw-gradient-0)" d="M0,98L26.7,106.2C53.3,114,107,131,160,179.7C213.3,229,267,310,320,318.5C373.3,327,427,261,480,269.5C533.3,278,587,359,640,367.5C693.3,376,747,310,800,245C853.3,180,907,114,960,73.5C1013.3,33,1067,16,1120,40.8C1173.3,65,1227,131,1280,187.8C1333.3,245,1387,294,1440,302.2C1493.3,310,1547,278,1600,277.7C1653.3,278,1707,310,1760,318.5C1813.3,327,1867,310,1920,253.2C1973.3,196,2027,98,2080,89.8C2133.3,82,2187,163,2240,236.8C2293.3,310,2347,376,2400,408.3C2453.3,441,2507,441,2560,424.7C2613.3,408,2667,376,2720,351.2C2773.3,327,2827,310,2880,294C2933.3,278,2987,261,3040,245C3093.3,229,3147,212,3200,245C3253.3,278,3307,359,3360,343C3413.3,327,3467,212,3520,155.2C3573.3,98,3627,98,3680,106.2C3733.3,114,3787,131,3813,138.8L3840,147L3840,490L3813.3,490C3786.7,490,3733,490,3680,490C3626.7,490,3573,490,3520,490C3466.7,490,3413,490,3360,490C3306.7,490,3253,490,3200,490C3146.7,490,3093,490,3040,490C2986.7,490,2933,490,2880,490C2826.7,490,2773,490,2720,490C2666.7,490,2613,490,2560,490C2506.7,490,2453,490,2400,490C2346.7,490,2293,490,2240,490C2186.7,490,2133,490,2080,490C2026.7,490,1973,490,1920,490C1866.7,490,1813,490,1760,490C1706.7,490,1653,490,1600,490C1546.7,490,1493,490,1440,490C1386.7,490,1333,490,1280,490C1226.7,490,1173,490,1120,490C1066.7,490,1013,490,960,490C906.7,490,853,490,800,490C746.7,490,693,490,640,490C586.7,490,533,490,480,490C426.7,490,373,490,320,490C266.7,490,213,490,160,490C106.7,490,53,490,27,490L0,490Z"/><defs><linearGradient id="sw-gradient-1" x1="0" x2="0" y1="1" y2="0">
<stop stop-color="rgba(144.342, 212.061, 179.946, 1)" offset="0%"/>
<stop stop-color="rgba(10.037, 250.276, 180.272, 0.67)" offset="100%"/>
</linearGradient></defs><path style="transform:translate(0, 50px); opacity:0.9" fill="url(#sw-gradient-1)" d="M0,441L26.7,375.7C53.3,310,107,180,160,147C213.3,114,267,180,320,196C373.3,212,427,180,480,163.3C533.3,147,587,147,640,179.7C693.3,212,747,278,800,261.3C853.3,245,907,147,960,98C1013.3,49,1067,49,1120,114.3C1173.3,180,1227,310,1280,359.3C1333.3,408,1387,376,1440,318.5C1493.3,261,1547,180,1600,163.3C1653.3,147,1707,196,1760,245C1813.3,294,1867,343,1920,367.5C1973.3,392,2027,392,2080,326.7C2133.3,261,2187,131,2240,130.7C2293.3,131,2347,261,2400,261.3C2453.3,261,2507,131,2560,138.8C2613.3,147,2667,294,2720,367.5C2773.3,441,2827,441,2880,400.2C2933.3,359,2987,278,3040,236.8C3093.3,196,3147,196,3200,163.3C3253.3,131,3307,65,3360,98C3413.3,131,3467,261,3520,318.5C3573.3,376,3627,359,3680,359.3C3733.3,359,3787,376,3813,383.8L3840,392L3840,490L3813.3,490C3786.7,490,3733,490,3680,490C3626.7,490,3573,490,3520,490C3466.7,490,3413,490,3360,490C3306.7,490,3253,490,3200,490C3146.7,490,3093,490,3040,490C2986.7,490,2933,490,2880,490C2826.7,490,2773,490,2720,490C2666.7,490,2613,490,2560,490C2506.7,490,2453,490,2400,490C2346.7,490,2293,490,2240,490C2186.7,490,2133,490,2080,490C2026.7,490,1973,490,1920,490C1866.7,490,1813,490,1760,490C1706.7,490,1653,490,1600,490C1546.7,490,1493,490,1440,490C1386.7,490,1333,490,1280,490C1226.7,490,1173,490,1120,490C1066.7,490,1013,490,960,490C906.7,490,853,490,800,490C746.7,490,693,490,640,490C586.7,490,533,490,480,490C426.7,490,373,490,320,490C266.7,490,213,490,160,490C106.7,490,53,490,27,490L0,490Z"/></svg>